<svg xmlns="http://www.w3.org/2000/svg" version="1.1" xmlns:xlink="http://www.w3.org/1999/xlink" xmlns:svgjs="http://svgjs.dev/svgjs" width="128" height="128" viewBox="0 0 128 128"><g transform="matrix(0.44782608695652176,0,0,0.44782608695652176,35.33913043478261,12.5)"><svg viewBox="0 0 125 225" data-background-color="#ffffff" preserveAspectRatio="xMidYMid meet" height="230" width="128" xmlns="http://www.w3.org/2000/svg" xmlns:xlink="http://www.w3.org/1999/xlink"><g id="tight-bounds" transform="matrix(1,0,0,1,0,0)"><svg viewBox="0 0 125 225" height="225" width="125"><rect width="125" height="225" fill="url(#3c5c4918-b8a2-49e4-b64c-23f36f647273)" mask="url(&quot;#4ff1e8cc-bc0e-473d-9639-397435b15046&quot;)" data-fill-palette-color="tertiary"></rect><rect width="125" height="225" fill="url(#0989a944-5ee0-4dc9-b824-f84ff7a90e73)" mask="url(&quot;#1e5256cd-8772-445d-99b6-d3f66375f5d7&quot;)" data-fill-palette-color="primary"></rect><g><svg></svg></g><g><svg viewBox="0 0 125 225" height="225" width="125"><g><path d="M8.188 130.945l1.455 1.82-0.727-2.366c-0.182-1.092-1.456 0.182-0.728 0.546M9.825 129.854c0.546 0.91 1.092 1.82 1.092 2.729 0 1.274 1.092 1.82 2.001 2.183-1.274-1.456-2.001-5.459-3.093-4.912M79.694 52.707c3.093 0 6.004-0.364 9.28 0.363 8.006 2.001 14.738 6.004 19.287 11.645l12.736 20.379c0.546 5.095 1.638 10.735 1.456 16.921 1.274 0 1.092-1.82 2.547-2.183-1.456 3.639-2.183 8.188-2.547 13.464-0.91-2.911 0-7.278 0.182-9.643-1.274 2.001-2.001 0.546-2.002-0.364 0.182-1.456-0.546-1.274-1.092-1.82-2.001-1.82-3.275-3.821-4.73-6.914 0.91-2.365 1.092-5.822-1.82-7.642-0.91-0.546-2.001-1.456-2.547-2.911-0.728-2.001-2.001-4.367-1.638-7.46 0.182-0.91-2.729 2.001-4.366 0.728-7.096-4.913-14.192-10.553-22.744-15.284-4.549 0-7.824-1.638-9.462-3.639-1.456-1.82-0.364-4.185 1.82-4.367 1.274 0 2.729-0.364 3.821 0.364 0.182-0.728 0.91-1.638 1.819-1.637M61.681 48.522l0.364 0.182c1.82 0.364 2.729 2.911 4.731 2.001 0 1.274 0.182 2.547-0.182 3.457-0.546 1.456-2.183 1.456-3.457 1.456-12.191-0.728-19.287 4.367-26.747 8.733-2.001 1.274-4.185 2.183-5.822 3.821-7.824 7.278-16.376 14.01-18.377 27.475l-1.638 14.92c-0.182 1.638-2.001 3.275-1.637 5.276l1.273 8.916c-1.274-1.274-2.001 0.364-1.637 1.092 0.182 0.546 0.91 2.365 2.001 0.727 1.456 2.729 2.911 8.006 4.913 10.372 6.186 7.278 14.192 13.828 20.742 20.378 1.638-0.364 2.911-0.364 3.275-1.456 0.546 1.092-0.546 2.183-1.455 2.366 2.911 1.82 6.186 3.457 10.553 3.821 5.64 0.364 10.917 1.274 15.829 2.547 2.547-0.728 5.095-1.092 7.824-1.274 0.91 0 1.456-1.456 2.548-1.819l0.182-1.82c1.092 1.638 0.91-0.546 0.182-1.637 1.274 1.092 1.638 2.001 2.183 2.729 0-0.546 1.456-2.547 1.456-0.182l0.363-2.365c0.546-0.364 0.728 2.001 1.274 0.364 0.546-1.638 1.638-0.364 2.729-0.91-0.364 0.728-0.182 2.183 1.092 1.274l1.456-1.274c0.91 2.183 2.365 1.274 3.093 0.91 8.006-5.095 16.012-11.099 23.653-17.104l-0.182 2.366 0.91-2.911c0.91 0.91 1.638 0.182 2.002-0.364 1.092-1.82 2.547-3.639 4.912-5.277-2.911 7.824-6.368 14.01-10.735 19.105l-1.819 2.183c0 1.274-0.364 2.911-1.82 3.093-0.728 0.182-2.183-0.364-3.275 0.728-0.546 0.728 1.274 2.183-0.182 1.092-1.274-0.91-2.547 0-4.003 0.364-1.092 0.364 0.728 1.456 1.092 2.183 0.364 0.728 0.728 1.456 0.546 2.366l-2.002-2.184c-2.365 1.274-3.821 3.639-5.822 5.459-0.91 0.728-0.546 2.001-0.546 3.093-1.274 0-2.729-0.364-3.457 0.364-0.546 0.728-0.364 1.82-0.364 2.911-1.82-0.182-2.001-2.911-3.639-2.365-1.638 0.364-3.457 0.546-4.913 1.455 1.092 2.183-1.82 0.91-1.455 1.274-2.729-1.638-5.095-2.911-8.006-1.82-6.186-2.001-13.828-1.092-19.469-0.364 0-0.91 0.182-1.82-0.182-2.001-0.364 0.91-1.456 0.546-1.273 0.546-3.457-2.365-6.914-3.821-10.553-5.823-3.275 0.364-6.368-1.274-7.278-2.183-2.547-2.365-5.459-1.092-7.824-1.638-5.095-1.274-6.914-6.55-7.46-10.189-0.364-1.82-1.82-2.547-2.366-2.365-2.365-7.642-6.004-14.556-8.915-21.652-0.728-1.82-0.546-3.639-0.546-5.641 0.91 0.364 1.82 0.182 1.638-1.091-0.91-6.004-3.093-10.553-5.459-14.92 1.274-6.186 1.456-13.464 4.367-18.923 2.547-4.913 7.278-7.46 10.553-11.645 1.092-1.456 1.092-3.457 2.183-4.731 3.639-3.639 7.278-7.46 11.281-10.735 1.82-1.456 4.003 0 6.732-0.546 0.91-3.275 4.549-6.186 8.006-5.276 1.456 0.364 4.367-3.457 5.277-3.821 1.456-0.546 0.728 1.456 0.728 2.729 3.457-2.729 8.188-4.185 12.554-5.822" fill="url(#3c5c4918-b8a2-49e4-b64c-23f36f647273)" fill-rule="nonzero" stroke="none" stroke-width="1" stroke-linecap="butt" stroke-linejoin="miter" stroke-miterlimit="10" stroke-dasharray="" stroke-dashoffset="0" font-family="none" font-weight="none" font-size="none" text-anchor="none" style="mix-blend-mode: normal" data-fill-palette-color="tertiary"></path></g><g transform="matrix(1,0,0,1,39.556749999999994,77.7375)"><svg viewBox="0 0 45.886500000000005 69.525" height="69.525" width="45.886500000000005"><g><svg viewBox="0 0 45.886500000000005 69.525" height="69.525" width="45.886500000000005"><g><svg viewBox="0 0 45.886500000000005 69.525" height="69.525" width="45.886500000000005"><g id="textblocktransform"><svg viewBox="0 0 45.886500000000005 69.525" height="69.525" width="45.886500000000005" id="textblock"><g><svg viewBox="0 0 45.886500000000005 69.525" height="69.525" width="45.886500000000005"><g transform="matrix(1,0,0,1,0,0)"><svg width="45.886500000000005" viewBox="-0.84 -30.96 29.039999999999996 44" height="69.525" data-palette-color="url(#0989a944-5ee0-4dc9-b824-f84ff7a90e73)"><g class="undefined-text-0" data-fill-palette-color="primary" id="text-0"></g></svg></g></svg></g></svg></g></svg></g><g></g></svg></g></svg></g></svg></g><defs></defs><mask id="1e5256cd-8772-445d-99b6-d3f66375f5d7"><g id="SvgjsG1089"><svg viewBox="0 0 125 225" height="225" width="125"><g><svg></svg></g><g><svg viewBox="0 0 125 225" height="225" width="125"><g></g><g transform="matrix(1,0,0,1,39.556749999999994,77.7375)"><svg viewBox="0 0 45.886500000000005 69.525" height="69.525" width="45.886500000000005"><g><svg viewBox="0 0 45.886500000000005 69.525" height="69.525" width="45.886500000000005"><g><svg viewBox="0 0 45.886500000000005 69.525" height="69.525" width="45.886500000000005"><g id="SvgjsG1088"><svg viewBox="0 0 45.886500000000005 69.525" height="69.525" width="45.886500000000005" id="SvgjsSvg1087"><g><svg viewBox="0 0 45.886500000000005 69.525" height="69.525" width="45.886500000000005"><g transform="matrix(1,0,0,1,0,0)"><svg width="45.886500000000005" viewBox="-0.84 -30.96 29.039999999999996 44" height="69.525" data-palette-color="url(#0989a944-5ee0-4dc9-b824-f84ff7a90e73)"><g class="undefined-text-0" data-fill-palette-color="primary" id="SvgjsG1086"><path d="M9.36-17.76L9.36-17.76Q7.16-18.28 5.84-19.6L5.84-19.6Q4.4-21.12 4.4-23.16L4.4-23.16Q4.4-26.48 6.6-28.24L6.6-28.24Q7.88-29.24 9.48-29.24L9.48-29.24Q9.84-29.24 10.04-29.02 10.24-28.8 10.28-28.36L10.28-28.36Q8.64-28.36 7.44-27.08L7.44-27.08Q5.92-25.44 5.92-23.4L5.92-23.4Q5.92-22.16 6.76-20.74 7.6-19.32 9.76-18.8L9.76-18.8Q11.84-24 15.02-27.48 18.2-30.96 21.6-30.96L21.6-30.96Q24.52-30.96 25-28.56L25-28.56Q25.12-28.08 25.12-27.6L25.12-27.6Q25.12-25.52 23.28-23.04L23.28-23.04Q20.48-19.2 15.56-17.96L15.56-17.96Q14.08-17.6 12.48-17.52L12.48-17.52Q10.72-12.08 10.72-7.28 10.72-2.48 12.92-2.48L12.92-2.48Q14.44-2.48 16.4-4.6 18.36-6.72 20.08-9.84L20.08-9.84Q23.44-16 24.76-19.52L24.76-19.52Q25.36-21 25.94-21.72 26.52-22.44 27.36-22.44 28.2-22.44 28.2-21.52L28.2-21.52Q26.76-18.12 25.4-10.12L25.4-10.12Q24-2.6 23.28-0.4 22.56 1.8 21.8 3.66 21.04 5.52 20.2 6.74 19.36 7.96 18.18 9.26 17 10.56 15.68 11.32L15.68 11.32Q12.64 13.04 8.88 13.04L8.88 13.04Q2.64 13.04 0.28 8.88L0.28 8.88Q-0.84 7-0.84 5.3-0.84 3.6-0.44 2.24L-0.44 2.24Q0.52-0.88 2.96-1.96L2.96-1.96Q3.88-2.32 4.6-2.32L4.6-2.32Q5.88-2.32 6.08-1.52L6.08-1.52 6.12-1.28Q3.64-1.28 2.24 1.44L2.24 1.44Q1.32 3.2 1.32 4.68L1.32 4.68Q1.32 10.48 6.24 11.8L6.24 11.8Q7.44 12.12 8.84 12.12L8.84 12.12Q11.6 12.12 13.78 10.68 15.96 9.24 17.24 7.56 18.52 5.88 19.68 2.36 20.84-1.16 21.26-3.04 21.68-4.92 22.1-7.12 22.52-9.32 22.56-9.48 22.6-9.64 22.64-9.86 22.68-10.08 22.74-10.5 22.8-10.92 23.04-11.84L23.04-11.84 22.64-11.84Q20.24-7.28 17.56-4.2 14.88-1.12 12.56-1.12 10.24-1.12 9-2.6L9-2.6Q7.44-4.48 7.44-8.52 7.44-12.56 9.36-17.76ZM21.6-29.8L21.6-29.8Q19.08-29.8 16.78-26.62 14.48-23.44 12.84-18.6L12.84-18.6Q17.96-18.96 21.28-22.72L21.28-22.72Q23.6-25.32 23.6-27.72L23.6-27.72Q23.36-29.68 21.6-29.8Z" fill="white"></path></g></svg></g></svg></g></svg></g></svg></g><g></g></svg></g></svg></g></svg></g><defs><mask></mask></defs></svg></g></mask><linearGradient x1="0" x2="1" y1="0.5" y2="0.5" id="0989a944-5ee0-4dc9-b824-f84ff7a90e73"><stop stop-color="#f00b51" offset="0"></stop><stop stop-color="#730062" offset="1"></stop></linearGradient><mask id="4ff1e8cc-bc0e-473d-9639-397435b15046"><g id="SvgjsG1097"><svg viewBox="0 0 125 225" height="225" width="125"><g><svg></svg></g><g><svg viewBox="0 0 125 225" height="225" width="125"><g><path d="M8.188 130.945l1.455 1.82-0.727-2.366c-0.182-1.092-1.456 0.182-0.728 0.546M9.825 129.854c0.546 0.91 1.092 1.82 1.092 2.729 0 1.274 1.092 1.82 2.001 2.183-1.274-1.456-2.001-5.459-3.093-4.912M79.694 52.707c3.093 0 6.004-0.364 9.28 0.363 8.006 2.001 14.738 6.004 19.287 11.645l12.736 20.379c0.546 5.095 1.638 10.735 1.456 16.921 1.274 0 1.092-1.82 2.547-2.183-1.456 3.639-2.183 8.188-2.547 13.464-0.91-2.911 0-7.278 0.182-9.643-1.274 2.001-2.001 0.546-2.002-0.364 0.182-1.456-0.546-1.274-1.092-1.82-2.001-1.82-3.275-3.821-4.73-6.914 0.91-2.365 1.092-5.822-1.82-7.642-0.91-0.546-2.001-1.456-2.547-2.911-0.728-2.001-2.001-4.367-1.638-7.46 0.182-0.91-2.729 2.001-4.366 0.728-7.096-4.913-14.192-10.553-22.744-15.284-4.549 0-7.824-1.638-9.462-3.639-1.456-1.82-0.364-4.185 1.82-4.367 1.274 0 2.729-0.364 3.821 0.364 0.182-0.728 0.91-1.638 1.819-1.637M61.681 48.522l0.364 0.182c1.82 0.364 2.729 2.911 4.731 2.001 0 1.274 0.182 2.547-0.182 3.457-0.546 1.456-2.183 1.456-3.457 1.456-12.191-0.728-19.287 4.367-26.747 8.733-2.001 1.274-4.185 2.183-5.822 3.821-7.824 7.278-16.376 14.01-18.377 27.475l-1.638 14.92c-0.182 1.638-2.001 3.275-1.637 5.276l1.273 8.916c-1.274-1.274-2.001 0.364-1.637 1.092 0.182 0.546 0.91 2.365 2.001 0.727 1.456 2.729 2.911 8.006 4.913 10.372 6.186 7.278 14.192 13.828 20.742 20.378 1.638-0.364 2.911-0.364 3.275-1.456 0.546 1.092-0.546 2.183-1.455 2.366 2.911 1.82 6.186 3.457 10.553 3.821 5.64 0.364 10.917 1.274 15.829 2.547 2.547-0.728 5.095-1.092 7.824-1.274 0.91 0 1.456-1.456 2.548-1.819l0.182-1.82c1.092 1.638 0.91-0.546 0.182-1.637 1.274 1.092 1.638 2.001 2.183 2.729 0-0.546 1.456-2.547 1.456-0.182l0.363-2.365c0.546-0.364 0.728 2.001 1.274 0.364 0.546-1.638 1.638-0.364 2.729-0.91-0.364 0.728-0.182 2.183 1.092 1.274l1.456-1.274c0.91 2.183 2.365 1.274 3.093 0.91 8.006-5.095 16.012-11.099 23.653-17.104l-0.182 2.366 0.91-2.911c0.91 0.91 1.638 0.182 2.002-0.364 1.092-1.82 2.547-3.639 4.912-5.277-2.911 7.824-6.368 14.01-10.735 19.105l-1.819 2.183c0 1.274-0.364 2.911-1.82 3.093-0.728 0.182-2.183-0.364-3.275 0.728-0.546 0.728 1.274 2.183-0.182 1.092-1.274-0.91-2.547 0-4.003 0.364-1.092 0.364 0.728 1.456 1.092 2.183 0.364 0.728 0.728 1.456 0.546 2.366l-2.002-2.184c-2.365 1.274-3.821 3.639-5.822 5.459-0.91 0.728-0.546 2.001-0.546 3.093-1.274 0-2.729-0.364-3.457 0.364-0.546 0.728-0.364 1.82-0.364 2.911-1.82-0.182-2.001-2.911-3.639-2.365-1.638 0.364-3.457 0.546-4.913 1.455 1.092 2.183-1.82 0.91-1.455 1.274-2.729-1.638-5.095-2.911-8.006-1.82-6.186-2.001-13.828-1.092-19.469-0.364 0-0.91 0.182-1.82-0.182-2.001-0.364 0.91-1.456 0.546-1.273 0.546-3.457-2.365-6.914-3.821-10.553-5.823-3.275 0.364-6.368-1.274-7.278-2.183-2.547-2.365-5.459-1.092-7.824-1.638-5.095-1.274-6.914-6.55-7.46-10.189-0.364-1.82-1.82-2.547-2.366-2.365-2.365-7.642-6.004-14.556-8.915-21.652-0.728-1.82-0.546-3.639-0.546-5.641 0.91 0.364 1.82 0.182 1.638-1.091-0.91-6.004-3.093-10.553-5.459-14.92 1.274-6.186 1.456-13.464 4.367-18.923 2.547-4.913 7.278-7.46 10.553-11.645 1.092-1.456 1.092-3.457 2.183-4.731 3.639-3.639 7.278-7.46 11.281-10.735 1.82-1.456 4.003 0 6.732-0.546 0.91-3.275 4.549-6.186 8.006-5.276 1.456 0.364 4.367-3.457 5.277-3.821 1.456-0.546 0.728 1.456 0.728 2.729 3.457-2.729 8.188-4.185 12.554-5.822" fill="white" fill-rule="nonzero" stroke="none" stroke-width="1" stroke-linecap="butt" stroke-linejoin="miter" stroke-miterlimit="10" stroke-dasharray="" stroke-dashoffset="0" font-family="none" font-weight="none" font-size="none" text-anchor="none" style="mix-blend-mode: normal"></path></g><g transform="matrix(1,0,0,1,39.556749999999994,77.7375)"><svg viewBox="0 0 45.886500000000005 69.525" height="69.525" width="45.886500000000005"><g><svg viewBox="0 0 45.886500000000005 69.525" height="69.525" width="45.886500000000005"><g><svg viewBox="0 0 45.886500000000005 69.525" height="69.525" width="45.886500000000005"><g id="SvgjsG1096"><svg viewBox="0 0 45.886500000000005 69.525" height="69.525" width="45.886500000000005" id="SvgjsSvg1095"><g><svg viewBox="0 0 45.886500000000005 69.525" height="69.525" width="45.886500000000005"><g transform="matrix(1,0,0,1,0,0)"><svg width="45.886500000000005" viewBox="-0.84 -30.96 29.039999999999996 44" height="69.525" data-palette-color="url(#0989a944-5ee0-4dc9-b824-f84ff7a90e73)"><g class="undefined-text-0" data-fill-palette-color="primary" id="SvgjsG1094"></g></svg></g></svg></g></svg></g></svg></g><g></g></svg></g></svg></g></svg></g><defs><mask></mask></defs><mask><g id="SvgjsG1093"><svg viewBox="0 0 125 225" height="225" width="125"><g><svg></svg></g><g><svg viewBox="0 0 125 225" height="225" width="125"><g></g><g transform="matrix(1,0,0,1,39.556749999999994,77.7375)"><svg viewBox="0 0 45.886500000000005 69.525" height="69.525" width="45.886500000000005"><g><svg viewBox="0 0 45.886500000000005 69.525" height="69.525" width="45.886500000000005"><g><svg viewBox="0 0 45.886500000000005 69.525" height="69.525" width="45.886500000000005"><g id="SvgjsG1092"><svg viewBox="0 0 45.886500000000005 69.525" height="69.525" width="45.886500000000005" id="SvgjsSvg1091"><g><svg viewBox="0 0 45.886500000000005 69.525" height="69.525" width="45.886500000000005"><g transform="matrix(1,0,0,1,0,0)"><svg width="45.886500000000005" viewBox="-0.84 -30.96 29.039999999999996 44" height="69.525" data-palette-color="url(#0989a944-5ee0-4dc9-b824-f84ff7a90e73)"><g class="undefined-text-0" data-fill-palette-color="primary" id="SvgjsG1090"></g></svg></g></svg></g></svg></g></svg></g><g></g></svg></g></svg></g></svg></g><defs><mask></mask></defs></svg></g></mask></svg></g></mask><linearGradient x1="0" x2="1" y1="0.548" y2="0.55" id="3c5c4918-b8a2-49e4-b64c-23f36f647273"><stop stop-color="#ff6cab" offset="0"></stop><stop stop-color="#7366ff" offset="1"></stop></linearGradient></svg><rect width="125" height="225" fill="none" stroke="none" visibility="hidden"></rect></g></svg></g></svg>